<?xml version="1.0" encoding="iso-8859-1"?>
<!-- Generator: Adobe Illustrator 19.0.0, SVG Export Plug-In . SVG Version: 6.00 Build 0)  -->
<svg version="1.1" id="&#x56FE;&#x5C42;_1" xmlns="http://www.w3.org/2000/svg" xmlns:xlink="http://www.w3.org/1999/xlink" x="0px"
	 y="0px" viewBox="0 0 278 107" style="enable-background:new 0 0 278 107;" xml:space="preserve">
<g id="XMLID_78_">
	<path id="XMLID_111_" style="fill:#235BA0;" d="M39.897,13.989c-1.691,0-4.414,0.349-5.954,1.064
		c-4.436,2.059-12.529,7.556-12.529,20.269c0,8.756,3.839,13.691,7.678,16.438c3.114,2.228,7.983,3.303,11.78,3.303h89.292
		c0,0,3.918,0.318,3.918-2.866c0,0-7.992-4.449-7.992-17.667s7.992-16.88,7.992-16.88s0-3.662-3.291-3.662H39.897z"/>
	<g id="XMLID_100_">
		<path id="XMLID_109_" style="fill:#FFFFFF;" d="M34.132,24.32h4.53l1.77,10.83c0.33,2.34,0.69,4.71,1.02,7.08h0.12
			c0.45-2.37,0.93-4.77,1.41-7.08l2.58-10.83h3.78l2.58,10.83c0.48,2.28,0.93,4.68,1.41,7.08h0.15c0.33-2.4,0.66-4.77,0.99-7.08
			l1.74-10.83h4.23l-4.11,22.199h-5.52l-2.49-10.979c-0.36-1.74-0.69-3.45-0.96-5.13h-0.12c-0.3,1.68-0.6,3.39-0.96,5.13
			l-2.43,10.979h-5.43L34.132,24.32z"/>
		<path id="XMLID_106_" style="fill:#FFFFFF;" d="M74.181,40.819h-7.2l-1.56,5.7h-4.5l7.11-22.199h5.22l7.14,22.199h-4.65
			L74.181,40.819z M73.221,37.37l-0.66-2.43c-0.69-2.31-1.29-4.86-1.95-7.26h-0.12c-0.57,2.43-1.23,4.95-1.89,7.26l-0.66,2.43
			H73.221z"/>
		<path id="XMLID_104_" style="fill:#FFFFFF;" d="M83.001,24.32h4.53l6.45,11.82l2.22,4.8h0.15c-0.24-2.31-0.57-5.25-0.57-7.77
			v-8.85h4.2v22.199h-4.5l-6.42-11.879l-2.25-4.77h-0.15c0.21,2.4,0.54,5.19,0.54,7.74v8.91h-4.2V24.32z"/>
		<path id="XMLID_101_" style="fill:#FFFFFF;" d="M109.881,28.01h-6.24v-3.69h16.979v3.69h-6.3v18.509h-4.439V28.01z"/>
	</g>
	<g id="XMLID_79_">
		<path id="XMLID_97_" style="fill:#F1AE40;" d="M196.427,37.828v6.982c0,0.86-0.697,1.557-1.557,1.557h-1.396
			c-0.879,0-1.591-0.712-1.591-1.591V25.431c0-0.87,0.705-1.575,1.575-1.575h8.856c2.987,0,5.066,0.405,6.24,1.215
			c0.811,0.54,1.435,1.255,1.872,2.143c0.438,0.889,0.656,1.862,0.656,2.92c0,2.138-0.513,3.792-1.536,4.962
			c-0.64,0.698-1.483,1.227-2.528,1.586c0.832,0.316,1.461,0.647,1.889,0.996c0.426,0.349,0.811,0.861,1.151,1.536
			c0.256,0.54,0.442,1.058,0.561,1.553c0.116,0.495,0.208,1.227,0.271,2.194c0.049,0.618,0.104,1.166,0.165,1.643
			c0.121,0.941-0.616,1.765-1.565,1.765h-1.866c-0.784,0-1.454-0.568-1.565-1.344c-0.073-0.508-0.148-1.129-0.225-1.863
			c-0.107-1.305-0.325-2.306-0.656-3.004c-0.331-0.697-0.827-1.248-1.488-1.654c-0.832-0.472-2.037-0.697-3.615-0.675H196.427z
			 M196.427,32.525h6.368c1.066,0,1.824-0.132,2.271-0.397c0.683-0.388,1.024-1.066,1.024-2.036c0-1.075-0.512-1.762-1.536-2.062
			c-0.363-0.106-0.949-0.159-1.76-0.159h-6.368V32.525z"/>
		<path id="XMLID_94_" style="fill:#F1AE40;" d="M214.731,25.444c0-0.878,0.711-1.589,1.589-1.589h7.467
			c9.59,0,10.688,7.157,10.688,11.307c0,6.641-3.306,11.205-10.688,11.205h-7.471c-0.875,0-1.584-0.709-1.584-1.584V25.444z
			 M219.275,29.198v12.153h4.512c1.984,0,3.36-0.387,4.128-1.161c0.47-0.491,0.849-1.18,1.137-2.068
			c0.288-0.887,0.432-1.831,0.432-2.833c0-1.114-0.171-2.134-0.512-3.059c-0.342-0.925-0.79-1.615-1.345-2.068
			c-0.811-0.641-2.091-0.963-3.84-0.963H219.275z"/>
		<path id="XMLID_92_" style="fill:#F1AE40;" d="M237.547,44.795v-1.711c0-0.884,0.716-1.6,1.6-1.6h8.16
			c1.558,0,2.593-0.157,3.104-0.472c0.746-0.473,1.12-0.911,1.12-1.856c0-1.102-0.549-2.238-3.681-2.238h-3.968
			c-2.411,0-4.149-0.461-5.216-1.384c-0.661-0.585-1.179-1.316-1.552-2.194c-0.374-0.878-0.561-1.823-0.561-2.835
			c0-1.575,0.438-3.015,1.312-4.32c0.853-1.26,2.219-2.002,4.096-2.227c0.641-0.067,1.589-0.101,2.849-0.101h9.042
			c0.856,0,1.55,0.694,1.55,1.55v0.92c0,0.854,0.12,2.166-1.547,2.166h-8.021c-2.812-0.083-4.288,0.854-4.288,2.062
			c0,1.229,0.383,2.381,3.904,2.381h3.424c1.749,0,3.051,0.158,3.904,0.472c1.515,0.54,2.56,1.485,3.136,2.835
			c0.448,1.08,0.672,2.239,0.672,3.476c0,1.373-0.299,2.599-0.896,3.679c-0.832,1.53-2.08,2.452-3.744,2.768
			c-0.812,0.135-2.038,0.202-3.681,0.202h-9.147C238.251,46.368,237.547,45.664,237.547,44.795z"/>
		<path id="XMLID_89_" style="fill:#F1AE40;" d="M182.837,23.595h-9.362c-3.118,0-5.669,2.551-5.669,5.669v11.434
			c0,3.118,2.551,5.669,5.669,5.669h9.362c3.118,0,5.669-2.551,5.669-5.669V29.265C188.506,26.147,185.955,23.595,182.837,23.595z
			 M183.468,41.351h-10.625V29.115h10.625V41.351z"/>
		<g id="XMLID_82_">
			<g id="XMLID_86_">
				<path id="XMLID_87_" style="fill:#F1AE40;" d="M143.961,44.743l-7-17.875c-0.084-0.416-0.125-0.791-0.125-1.125
					c0.082-1.5,0.875-2.291,2.375-2.375c0.916,0,1.625,0.543,2.125,1.625l5,13.25l4.875-13.25c0.582-1.082,1.332-1.625,2.25-1.625
					c1.5,0.168,2.332,0.959,2.5,2.375c0,0.334-0.084,0.709-0.25,1.125l-7,17.875c-0.5,1.168-1.293,1.707-2.375,1.625
					C145.168,46.368,144.377,45.827,143.961,44.743z"/>
			</g>
			<g id="XMLID_83_">
				<path id="XMLID_84_" style="fill:#F1AE40;" d="M153.128,44.743l-7-17.875c-0.084-0.416-0.125-0.791-0.125-1.125
					c0.082-1.5,0.875-2.291,2.375-2.375c0.916,0,1.625,0.543,2.125,1.625l5,13.25l4.875-13.25c0.582-1.082,1.332-1.625,2.25-1.625
					c1.5,0.168,2.332,0.959,2.5,2.375c0,0.334-0.084,0.709-0.25,1.125l-7,17.875c-0.5,1.168-1.293,1.707-2.375,1.625
					C154.335,46.368,153.544,45.827,153.128,44.743z"/>
			</g>
		</g>
	</g>
</g>
<g id="XMLID_1_">
	<path id="XMLID_2_" style="fill:#235BA0;" d="M87.971,89.671c-3.88,0.022-7.32-0.816-10.318-2.517
		c-1.38,0.703-2.86,1.275-4.44,1.718c-1.58,0.441-3.279,0.765-5.099,0.969v-4.046c1.08-0.182,2.089-0.396,3.029-0.646
		c0.941-0.249,1.83-0.544,2.669-0.884c-1.938-1.813-3.759-4.148-5.458-7.004h5.308c0.601,1.065,1.225,2.001,1.875,2.805
		c0.65,0.805,1.325,1.524,2.025,2.159c1.06-0.771,1.995-1.671,2.805-2.703c0.81-1.031,1.525-2.238,2.145-3.621l0.06-0.493
		l-15.448,0.034v9.571l-1.38,4.794h-4.11l1.38-4.794V69.95v-3.332l24.657-1.325v3.332l-20.547,1.122v2.617l20.066-0.033v3.076
		l-0.09,0.493c0,0-1.38,3.508-2.34,4.947c-0.96,1.439-2.069,2.703-3.329,3.791c0.96,0.386,1.975,0.686,3.045,0.901
		c1.07,0.215,2.235,0.356,3.494,0.425V89.671z"/>
	<path id="XMLID_4_" style="fill:#235BA0;" d="M112.192,89.841h-4.166V67.604h2.727l0.868-2.312h4.346l-0.869,2.312h15.971
		c0.439,0,0.859,0.097,1.258,0.289c0.399,0.193,0.749,0.459,1.049,0.799c0.3,0.34,0.539,0.737,0.719,1.19
		c0.18,0.453,0.27,0.93,0.27,1.428v14.79c0,0.521-0.09,1.009-0.27,1.462c-0.18,0.454-0.419,0.851-0.719,1.19
		c-0.3,0.34-0.65,0.606-1.049,0.799s-0.819,0.289-1.258,0.289h-3.895l1.319-3.366h1.339c0.28,0,0.51-0.102,0.689-0.306
		c0.18-0.204,0.269-0.453,0.269-0.748V74.173c0-1.909-0.542-3.456-4.046-3.456h-14.552V89.841z M128.552,81.991
		c0,0.521-0.085,1.009-0.255,1.462c-0.17,0.454-0.405,0.851-0.704,1.19c-0.3,0.34-0.649,0.606-1.048,0.799
		c-0.4,0.193-0.83,0.289-1.288,0.289H113.84V72.968h11.772c1.624,0,2.941,1.317,2.941,2.941V81.991z M123.256,76.008h-6.097v6.684
		h5.771c2.031,0,2.305-1.692,2.305-2.504v-4.18C125.234,76.008,123.979,76.008,123.256,76.008z"/>
	<path id="XMLID_33_" style="fill:#235BA0;" d="M225.349,81.341h0.779v3.366h-26.294v-3.366h0.778v-3.23v-3.365v-3.774v-0.408
		v-2.958h6.619v-2.312h2.385c0.982,0,1.777,0.796,1.777,1.777v0.534h3.175v-2.312h2.346c1.003,0,1.816,0.813,1.816,1.816v0.495
		l3.334,0c0.388,0,0.778,0.073,1.131,0.235c0.461,0.21,0.859,0.507,1.195,0.888c0.299,0.34,0.534,0.737,0.704,1.19
		s0.255,0.93,0.255,1.428v3.4v3.365V81.341z M203.607,85.522h4.162l-3.024,4.284h-4.133L203.607,85.522z M204.745,74.745h2.486
		v-4.021h-2.486V74.745z M204.745,81.341h2.486v-3.23h-2.486V81.341z M211.394,70.724v4.021h3.175v-4.021H211.394z M214.568,78.11
		h-3.175v3.23h3.175V78.11z M221.216,89.807l-2.995-4.284h4.133l2.994,4.284H221.216z M218.731,70.724v4.021h2.486v-2.933
		c0-0.317-0.09-0.578-0.27-0.782c-0.179-0.204-0.409-0.306-0.688-0.306H218.731z M219.934,78.11h-1.204v3.23h2.486v-1.948
		C221.216,78.684,220.642,78.11,219.934,78.11z"/>
</g>
<path id="XMLID_61_" style="fill:#235BA0;" d="M159.295,89.236c-0.46,0-0.885-0.099-1.275-0.296c-0.39-0.197-0.734-0.47-1.034-0.818
	c-0.301-0.348-0.536-0.753-0.705-1.217c-0.171-0.463-0.255-0.963-0.255-1.496v-10.54h-1.771v-3.444h1.771h3.538h0.06v13.741
	c0,0.301,0.09,0.557,0.27,0.766c0.181,0.208,0.953,0.313,1.233,0.313h1.77l-1.17,2.992H159.295z M164.077,65.293h13.906
	c1.442,0,2.611,1.169,2.611,2.611l0,0v0.746v16.957c0,0.521-0.085,1.007-0.255,1.458c-0.17,0.453-0.405,0.848-0.705,1.187
	c-0.3,0.34-0.65,0.606-1.05,0.797c-0.4,0.193-0.83,0.277-1.29,0.255l-1.606-0.339v-2.123c0.947,0,1.406-0.019,1.406-1.948V70.716
	c0-1.781-1.281-2.273-2.07-2.273h-10.948c-0.653,0-1.183-0.53-1.183-1.183v-0.784C162.894,65.823,163.424,65.293,164.077,65.293z
	 M175.105,72.945h-12.211v-3.04h10.8c1.411,0,1.411,0.572,1.411,1.278V72.945z M175.105,81.423c0,0.536-0.09,1.036-0.27,1.5
	c-0.18,0.466-0.428,0.872-0.747,1.221c-0.318,0.35-0.688,0.623-1.112,0.82c-0.424,0.199-0.879,0.296-1.367,0.296h-8.517V74.342
	h10.514c0.828,0,1.499,0.652,1.499,1.456V81.423z M171.908,77.129h-5.937v4.909h4.097c0.514,0,0.951-0.092,1.307-0.276
	c0.356-0.185,0.533-0.409,0.533-0.675V77.129z M159.727,67.684c0,1.321-1.071,2.391-2.391,2.391c-1.321,0-2.391-1.071-2.391-2.391
	s1.071-2.391,2.391-2.391C158.657,65.293,159.727,66.364,159.727,67.684z"/>
<path id="XMLID_27_" style="fill:#235BA0;" d="M114.193,70.717"/>
</svg>
