<?xml version="1.0" encoding="iso-8859-1"?>
<!-- Generator: Adobe Illustrator 19.0.0, SVG Export Plug-In . SVG Version: 6.00 Build 0)  -->
<svg version="1.1" id="&#x56FE;&#x5C42;_1" xmlns="http://www.w3.org/2000/svg" xmlns:xlink="http://www.w3.org/1999/xlink" x="0px"
	 y="0px" viewBox="0 0 235.173 76.466" style="enable-background:new 0 0 235.173 76.466;" xml:space="preserve">
<path id="XMLID_1_" style="fill:#235BA0;" d="M18.483,0c-1.691,0-4.414,0.349-5.954,1.064C8.093,3.123,0,8.62,0,21.333
	c0,8.756,3.839,13.691,7.678,16.438c3.114,2.228,7.983,3.303,11.78,3.303h89.292c0,0,3.918,0.318,3.918-2.866
	c0,0-7.992-4.449-7.992-17.667s7.992-16.88,7.992-16.88s0-3.662-3.291-3.662H18.483z"/>
<g id="XMLID_2_">
	<path id="XMLID_3_" style="fill:#FFFFFF;" d="M12.718,10.331h4.53l1.77,10.83c0.33,2.34,0.69,4.71,1.02,7.08h0.12
		c0.45-2.37,0.93-4.77,1.41-7.08l2.58-10.83h3.78l2.58,10.83c0.48,2.28,0.93,4.68,1.41,7.08h0.15c0.33-2.4,0.66-4.77,0.99-7.08
		l1.74-10.83h4.23l-4.11,22.199h-5.52l-2.49-10.979c-0.36-1.74-0.69-3.45-0.96-5.13h-0.12c-0.3,1.68-0.6,3.39-0.96,5.13
		l-2.43,10.979h-5.43L12.718,10.331z"/>
	<path id="XMLID_5_" style="fill:#FFFFFF;" d="M52.768,26.831h-7.2l-1.56,5.7h-4.5l7.11-22.199h5.22l7.14,22.199h-4.65
		L52.768,26.831z M51.808,23.381l-0.66-2.43c-0.69-2.31-1.29-4.86-1.95-7.26h-0.12c-0.57,2.43-1.23,4.95-1.89,7.26l-0.66,2.43
		H51.808z"/>
	<path id="XMLID_26_" style="fill:#FFFFFF;" d="M61.588,10.331h4.53l6.45,11.82l2.22,4.8h0.15c-0.24-2.31-0.57-5.25-0.57-7.77v-8.85
		h4.2v22.199h-4.5l-6.42-11.879l-2.25-4.77h-0.15c0.21,2.4,0.54,5.19,0.54,7.74v8.91h-4.2V10.331z"/>
	<path id="XMLID_28_" style="fill:#FFFFFF;" d="M88.468,14.021h-6.24v-3.69h16.979v3.69h-6.3v18.509h-4.439V14.021z"/>
</g>
<g id="XMLID_30_">
	<path id="XMLID_31_" style="fill:#235BA0;" d="M65.72,55.586h-6.33v-3.132h26.25v3.132H69.77l-1.35,4.513h15.96h0.27v13.03
		c0,0.831-0.255,1.538-0.765,2.122c-0.51,0.584-1.146,0.876-1.905,0.876h-5.85l1.02-2.762h3.21c0.181,0,0.335-0.072,0.466-0.218
		c0.129-0.146,0.194-0.32,0.194-0.522v-9.429h-13.53L63.62,75.992h-4.051L65.72,55.586z"/>
	<path id="XMLID_33_" style="fill:#235BA0;" d="M111.674,76.397c-0.46,0-0.885-0.099-1.275-0.296
		c-0.39-0.197-0.734-0.47-1.034-0.818c-0.301-0.348-0.536-0.753-0.705-1.217c-0.171-0.463-0.255-0.963-0.255-1.496V62.03h-1.771
		v-3.444h1.771h3.538h0.06v13.741c0,0.301,0.09,0.557,0.27,0.766c0.181,0.208,0.953,0.313,1.233,0.313h1.77l-1.17,2.992H111.674z
		 M116.456,52.455h13.906c1.442,0,2.611,1.169,2.611,2.611v0v0.746v16.957c0,0.521-0.085,1.007-0.255,1.458
		c-0.17,0.453-0.405,0.848-0.705,1.187c-0.3,0.34-0.65,0.606-1.05,0.797c-0.4,0.193-0.83,0.277-1.29,0.255l-1.606-0.339v-2.123
		c0.947,0,1.406-0.019,1.406-1.948V57.878c0-1.781-1.281-2.273-2.07-2.273h-10.948c-0.653,0-1.183-0.53-1.183-1.183v-0.784
		C115.273,52.984,115.803,52.455,116.456,52.455z M127.484,60.107h-12.211v-3.04h10.8c1.411,0,1.411,0.572,1.411,1.278V60.107z
		 M127.484,68.585c0,0.536-0.09,1.036-0.27,1.5c-0.18,0.466-0.428,0.872-0.747,1.221c-0.318,0.35-0.688,0.623-1.112,0.82
		c-0.424,0.199-0.879,0.296-1.367,0.296h-8.517V61.503h10.514c0.828,0,1.499,0.652,1.499,1.456V68.585z M124.287,64.291h-5.937
		v4.909h4.097c0.514,0,0.951-0.092,1.307-0.276c0.356-0.185,0.533-0.409,0.533-0.675V64.291z M112.107,54.846
		c0,1.321-1.071,2.391-2.391,2.391c-1.321,0-2.391-1.071-2.391-2.391s1.071-2.391,2.391-2.391
		C111.036,52.455,112.107,53.525,112.107,54.846z"/>
	<path id="XMLID_39_" style="fill:#235BA0;" d="M180.218,76.499h-26.25v-3.416h9.386c0.864,0,1.564-0.7,1.564-1.564v-3.847
		c0-0.876-0.71-1.587-1.587-1.587h-8.373v-3.416h8.394c0.865,0,1.566-0.701,1.566-1.566v-3.706c0-0.843-0.684-1.527-1.527-1.527
		h-9.093v-3.417h25.92v3.417h-9.36c-0.862,0-1.56,0.699-1.56,1.56v3.681c0,0.86,0.697,1.557,1.557,1.557h8.372v3.416h-8.393
		c-0.849,0-1.537,0.688-1.537,1.537v3.906c0,0.859,0.696,1.556,1.556,1.556h9.364V76.499z"/>
</g>
<g id="XMLID_59_">
	<path id="XMLID_60_" style="fill:#F1AE40;" d="M175.014,23.84v6.982c0,0.86-0.697,1.557-1.557,1.557h-1.396
		c-0.879,0-1.591-0.712-1.591-1.591V11.442c0-0.87,0.705-1.575,1.575-1.575h8.856c2.987,0,5.066,0.405,6.24,1.215
		c0.811,0.54,1.435,1.255,1.872,2.143c0.438,0.889,0.656,1.862,0.656,2.92c0,2.138-0.513,3.792-1.536,4.962
		c-0.64,0.698-1.483,1.227-2.528,1.586c0.832,0.316,1.461,0.647,1.889,0.996c0.426,0.349,0.811,0.861,1.151,1.536
		c0.256,0.54,0.442,1.058,0.561,1.553c0.116,0.495,0.208,1.227,0.271,2.194c0.049,0.618,0.104,1.166,0.165,1.643
		c0.121,0.941-0.616,1.765-1.565,1.765h-1.866c-0.784,0-1.454-0.568-1.565-1.344c-0.073-0.508-0.148-1.129-0.225-1.863
		c-0.107-1.305-0.325-2.306-0.656-3.004c-0.331-0.697-0.827-1.248-1.488-1.654c-0.832-0.472-2.037-0.697-3.615-0.675H175.014z
		 M175.014,18.536h6.368c1.066,0,1.824-0.132,2.271-0.397c0.683-0.388,1.024-1.066,1.024-2.036c0-1.075-0.512-1.762-1.536-2.062
		c-0.363-0.106-0.949-0.159-1.76-0.159h-6.368V18.536z"/>
	<path id="XMLID_63_" style="fill:#F1AE40;" d="M193.318,11.456c0-0.878,0.711-1.589,1.589-1.589h7.467
		c9.59,0,10.688,7.157,10.688,11.307c0,6.641-3.306,11.205-10.688,11.205h-7.471c-0.875,0-1.584-0.709-1.584-1.584V11.456z
		 M197.862,15.21v12.153h4.512c1.984,0,3.36-0.387,4.128-1.161c0.47-0.491,0.849-1.18,1.137-2.068
		c0.288-0.887,0.432-1.831,0.432-2.833c0-1.114-0.171-2.134-0.512-3.059c-0.342-0.925-0.79-1.615-1.345-2.068
		c-0.811-0.641-2.091-0.963-3.84-0.963H197.862z"/>
	<path id="XMLID_66_" style="fill:#F1AE40;" d="M216.133,30.807v-1.711c0-0.884,0.716-1.6,1.6-1.6h8.16
		c1.558,0,2.593-0.157,3.104-0.472c0.746-0.473,1.12-0.911,1.12-1.856c0-1.102-0.549-2.238-3.681-2.238h-3.968
		c-2.411,0-4.149-0.461-5.216-1.384c-0.661-0.585-1.179-1.316-1.552-2.194c-0.374-0.878-0.561-1.823-0.561-2.835
		c0-1.575,0.438-3.015,1.312-4.32c0.853-1.26,2.219-2.002,4.096-2.227c0.641-0.067,1.589-0.101,2.849-0.101h9.042
		c0.856,0,1.55,0.694,1.55,1.55v0.92c0,0.854,0.12,2.166-1.547,2.166h-8.021c-2.812-0.083-4.288,0.854-4.288,2.062
		c0,1.229,0.383,2.381,3.904,2.381h3.424c1.749,0,3.051,0.158,3.904,0.472c1.515,0.54,2.56,1.485,3.136,2.835
		c0.448,1.08,0.672,2.239,0.672,3.476c0,1.373-0.299,2.599-0.896,3.679c-0.832,1.53-2.08,2.452-3.744,2.768
		c-0.812,0.135-2.038,0.202-3.681,0.202h-9.147C216.837,32.379,216.133,31.675,216.133,30.807z"/>
	<path id="XMLID_81_" style="fill:#F1AE40;" d="M161.423,9.607h-9.362c-3.118,0-5.669,2.551-5.669,5.669V26.71
		c0,3.118,2.551,5.669,5.669,5.669h9.362c3.118,0,5.669-2.551,5.669-5.669V15.276C167.093,12.158,164.542,9.607,161.423,9.607z
		 M162.055,27.362H151.43V15.126h10.625V27.362z"/>
	<g id="XMLID_68_">
		<g id="XMLID_69_">
			<path id="XMLID_70_" style="fill:#F1AE40;" d="M122.547,30.754l-7-17.875c-0.084-0.416-0.125-0.791-0.125-1.125
				c0.082-1.5,0.875-2.291,2.375-2.375c0.916,0,1.625,0.543,2.125,1.625l5,13.25l4.875-13.25c0.582-1.082,1.332-1.625,2.25-1.625
				c1.5,0.168,2.332,0.959,2.5,2.375c0,0.334-0.084,0.709-0.25,1.125l-7,17.875c-0.5,1.168-1.293,1.707-2.375,1.625
				C123.754,32.379,122.963,31.838,122.547,30.754z"/>
		</g>
		<g id="XMLID_72_">
			<path id="XMLID_73_" style="fill:#F1AE40;" d="M131.714,30.754l-7-17.875c-0.084-0.416-0.125-0.791-0.125-1.125
				c0.082-1.5,0.875-2.291,2.375-2.375c0.916,0,1.625,0.543,2.125,1.625l5,13.25l4.875-13.25c0.582-1.082,1.332-1.625,2.25-1.625
				c1.5,0.168,2.332,0.959,2.5,2.375c0,0.334-0.084,0.709-0.25,1.125l-7,17.875c-0.5,1.168-1.293,1.707-2.375,1.625
				C132.921,32.379,132.13,31.838,131.714,30.754z"/>
		</g>
	</g>
</g>
</svg>
